%TF.GenerationSoftware,KiCad,Pcbnew,9.0.4*%
%TF.CreationDate,2026-03-28T19:59:14-07:00*%
%TF.ProjectId,Autonomous Rover Kicad,4175746f-6e6f-46d6-9f75-7320526f7665,rev?*%
%TF.SameCoordinates,Original*%
%TF.FileFunction,Copper,L1,Top*%
%TF.FilePolarity,Positive*%
%FSLAX46Y46*%
G04 Gerber Fmt 4.6, Leading zero omitted, Abs format (unit mm)*
G04 Created by KiCad (PCBNEW 9.0.4) date 2026-03-28 19:59:14*
%MOMM*%
%LPD*%
G01*
G04 APERTURE LIST*
G04 Aperture macros list*
%AMRoundRect*
0 Rectangle with rounded corners*
0 $1 Rounding radius*
0 $2 $3 $4 $5 $6 $7 $8 $9 X,Y pos of 4 corners*
0 Add a 4 corners polygon primitive as box body*
4,1,4,$2,$3,$4,$5,$6,$7,$8,$9,$2,$3,0*
0 Add four circle primitives for the rounded corners*
1,1,$1+$1,$2,$3*
1,1,$1+$1,$4,$5*
1,1,$1+$1,$6,$7*
1,1,$1+$1,$8,$9*
0 Add four rect primitives between the rounded corners*
20,1,$1+$1,$2,$3,$4,$5,0*
20,1,$1+$1,$4,$5,$6,$7,0*
20,1,$1+$1,$6,$7,$8,$9,0*
20,1,$1+$1,$8,$9,$2,$3,0*%
G04 Aperture macros list end*
%TA.AperFunction,Conductor*%
%ADD10C,0.200000*%
%TD*%
%TA.AperFunction,ComponentPad*%
%ADD11R,1.700000X1.700000*%
%TD*%
%TA.AperFunction,ComponentPad*%
%ADD12C,1.700000*%
%TD*%
%TA.AperFunction,ComponentPad*%
%ADD13C,2.400000*%
%TD*%
%TA.AperFunction,ComponentPad*%
%ADD14RoundRect,0.250001X-0.949999X-0.949999X0.949999X-0.949999X0.949999X0.949999X-0.949999X0.949999X0*%
%TD*%
G04 APERTURE END LIST*
D10*
%TO.N,Net-(J3-Pin_2)*%
X135500000Y-97000000D02*
X135000000Y-97500000D01*
%TD*%
D11*
%TO.P,J3,1,Pin_1*%
%TO.N,unconnected-(J3-Pin_1-Pad1)*%
X132460000Y-97440000D03*
D12*
%TO.P,J3,2,Pin_2*%
%TO.N,Net-(J3-Pin_2)*%
X135000000Y-97440000D03*
%TO.P,J3,3,Pin_3*%
%TO.N,unconnected-(J3-Pin_3-Pad3)*%
X132460000Y-99980000D03*
%TO.P,J3,4,Pin_4*%
%TO.N,Net-(J3-Pin_4)*%
X135000000Y-99980000D03*
%TO.P,J3,5,Pin_5*%
%TO.N,unconnected-(J3-Pin_5-Pad5)*%
X132460000Y-102520000D03*
%TO.P,J3,6,Pin_6*%
%TO.N,Net-(J3-Pin_6)*%
X135000000Y-102520000D03*
%TO.P,J3,7,Pin_7*%
%TO.N,unconnected-(J3-Pin_7-Pad7)*%
X132460000Y-105060000D03*
%TO.P,J3,8,Pin_8*%
%TO.N,Net-(J3-Pin_8)*%
X135000000Y-105060000D03*
%TO.P,J3,9,Pin_9*%
%TO.N,unconnected-(J3-Pin_9-Pad9)*%
X132460000Y-107600000D03*
%TO.P,J3,10,Pin_10*%
%TO.N,Net-(J3-Pin_10)*%
X135000000Y-107600000D03*
%TO.P,J3,11,Pin_11*%
%TO.N,unconnected-(J3-Pin_11-Pad11)*%
X132460000Y-110140000D03*
%TO.P,J3,12,Pin_12*%
%TO.N,Net-(J3-Pin_12)*%
X135000000Y-110140000D03*
%TO.P,J3,13,Pin_13*%
%TO.N,unconnected-(J3-Pin_13-Pad13)*%
X132460000Y-112680000D03*
%TO.P,J3,14,Pin_14*%
%TO.N,unconnected-(J3-Pin_14-Pad14)*%
X135000000Y-112680000D03*
%TO.P,J3,15,Pin_15*%
%TO.N,Net-(J1-Pin_4)*%
X132460000Y-115220000D03*
%TO.P,J3,16,Pin_16*%
%TO.N,unconnected-(J3-Pin_16-Pad16)*%
X135000000Y-115220000D03*
%TO.P,J3,17,Pin_17*%
%TO.N,Net-(J1-Pin_3)*%
X132460000Y-117760000D03*
%TO.P,J3,18,Pin_18*%
%TO.N,unconnected-(J3-Pin_18-Pad18)*%
X135000000Y-117760000D03*
%TO.P,J3,19,Pin_19*%
%TO.N,Net-(J2-Pin_5)*%
X132460000Y-120300000D03*
%TO.P,J3,20,Pin_20*%
%TO.N,unconnected-(J3-Pin_20-Pad20)*%
X135000000Y-120300000D03*
%TO.P,J3,21,Pin_21*%
%TO.N,Net-(J2-Pin_6)*%
X132460000Y-122840000D03*
%TO.P,J3,22,Pin_22*%
%TO.N,unconnected-(J3-Pin_22-Pad22)*%
X135000000Y-122840000D03*
%TO.P,J3,23,Pin_23*%
%TO.N,Net-(J2-Pin_8)*%
X132460000Y-125380000D03*
%TO.P,J3,24,Pin_24*%
%TO.N,unconnected-(J3-Pin_24-Pad24)*%
X135000000Y-125380000D03*
%TO.P,J3,25,Pin_25*%
%TO.N,Net-(J2-Pin_7)*%
X132460000Y-127920000D03*
%TO.P,J3,26,Pin_26*%
%TO.N,unconnected-(J3-Pin_26-Pad26)*%
X135000000Y-127920000D03*
%TO.P,J3,27,Pin_27*%
%TO.N,unconnected-(J3-Pin_27-Pad27)*%
X132460000Y-130460000D03*
%TO.P,J3,28,Pin_28*%
%TO.N,unconnected-(J3-Pin_28-Pad28)*%
X135000000Y-130460000D03*
%TO.P,J3,29,Pin_29*%
%TO.N,unconnected-(J3-Pin_29-Pad29)*%
X132460000Y-133000000D03*
%TO.P,J3,30,Pin_30*%
%TO.N,unconnected-(J3-Pin_30-Pad30)*%
X135000000Y-133000000D03*
%TO.P,J3,31,Pin_31*%
%TO.N,unconnected-(J3-Pin_31-Pad31)*%
X132460000Y-135540000D03*
%TO.P,J3,32,Pin_32*%
%TO.N,unconnected-(J3-Pin_32-Pad32)*%
X135000000Y-135540000D03*
%TO.P,J3,33,Pin_33*%
%TO.N,unconnected-(J3-Pin_33-Pad33)*%
X132460000Y-138080000D03*
%TO.P,J3,34,Pin_34*%
%TO.N,unconnected-(J3-Pin_34-Pad34)*%
X135000000Y-138080000D03*
%TO.P,J3,35,Pin_35*%
%TO.N,unconnected-(J3-Pin_35-Pad35)*%
X132460000Y-140620000D03*
%TO.P,J3,36,Pin_36*%
%TO.N,unconnected-(J3-Pin_36-Pad36)*%
X135000000Y-140620000D03*
%TO.P,J3,37,Pin_37*%
%TO.N,Net-(J1-Pin_1)*%
X132460000Y-143160000D03*
%TO.P,J3,38,Pin_38*%
%TO.N,Net-(J3-Pin_38)*%
X135000000Y-143160000D03*
%TO.P,J3,39,Pin_39*%
%TO.N,GND*%
X132460000Y-145700000D03*
%TO.P,J3,40,Pin_40*%
X135000000Y-145700000D03*
%TD*%
%TO.P,J1,8,Pin_8*%
%TO.N,unconnected-(J1-Pin_8-Pad8)*%
X164000000Y-100660000D03*
%TO.P,J1,7,Pin_7*%
%TO.N,unconnected-(J1-Pin_7-Pad7)*%
X164000000Y-98120000D03*
%TO.P,J1,6,Pin_6*%
%TO.N,unconnected-(J1-Pin_6-Pad6)*%
X164000000Y-95580000D03*
%TO.P,J1,5,Pin_5*%
%TO.N,unconnected-(J1-Pin_5-Pad5)*%
X164000000Y-93040000D03*
%TO.P,J1,4,Pin_4*%
%TO.N,Net-(J1-Pin_4)*%
X164000000Y-90500000D03*
%TO.P,J1,3,Pin_3*%
%TO.N,Net-(J1-Pin_3)*%
X164000000Y-87960000D03*
%TO.P,J1,2,Pin_2*%
%TO.N,GND*%
X164000000Y-85420000D03*
D11*
%TO.P,J1,1,Pin_1*%
%TO.N,Net-(J1-Pin_1)*%
X164000000Y-82880000D03*
%TD*%
D12*
%TO.P,J5,6,Pin_6*%
%TO.N,Net-(J3-Pin_12)*%
X156000000Y-91080000D03*
%TO.P,J5,5,Pin_5*%
%TO.N,Net-(J3-Pin_8)*%
X156000000Y-88540000D03*
%TO.P,J5,4,Pin_4*%
%TO.N,Net-(J3-Pin_6)*%
X156000000Y-86000000D03*
%TO.P,J5,3,Pin_3*%
%TO.N,Net-(J3-Pin_4)*%
X156000000Y-83460000D03*
%TO.P,J5,2,Pin_2*%
%TO.N,Net-(J3-Pin_2)*%
X156000000Y-80920000D03*
D11*
%TO.P,J5,1,Pin_1*%
%TO.N,Net-(J3-Pin_10)*%
X156000000Y-78380000D03*
%TD*%
D13*
%TO.P,J4,2,Pin_2*%
%TO.N,GND*%
X209500000Y-113500000D03*
D14*
%TO.P,J4,1,Pin_1*%
%TO.N,Net-(J4-Pin_1)*%
X206000000Y-113500000D03*
%TD*%
D13*
%TO.P,J6,3,Pin_3*%
%TO.N,Net-(J3-Pin_38)*%
X180500000Y-149167500D03*
%TO.P,J6,2,Pin_2*%
%TO.N,GND*%
X177000000Y-149167500D03*
D14*
%TO.P,J6,1,Pin_1*%
%TO.N,Net-(J4-Pin_1)*%
X173500000Y-149167500D03*
%TD*%
D11*
%TO.P,J2,1,Pin_1*%
%TO.N,Net-(J1-Pin_1)*%
X184000000Y-110300000D03*
D12*
%TO.P,J2,2,Pin_2*%
%TO.N,GND*%
X184000000Y-112840000D03*
%TO.P,J2,3,Pin_3*%
%TO.N,Net-(J1-Pin_3)*%
X184000000Y-115380000D03*
%TO.P,J2,4,Pin_4*%
%TO.N,Net-(J1-Pin_4)*%
X184000000Y-117920000D03*
%TO.P,J2,5,Pin_5*%
%TO.N,Net-(J2-Pin_5)*%
X184000000Y-120460000D03*
%TO.P,J2,6,Pin_6*%
%TO.N,Net-(J2-Pin_6)*%
X184000000Y-123000000D03*
%TO.P,J2,7,Pin_7*%
%TO.N,Net-(J2-Pin_7)*%
X184000000Y-125540000D03*
%TO.P,J2,8,Pin_8*%
%TO.N,Net-(J2-Pin_8)*%
X184000000Y-128080000D03*
%TD*%
D10*
%TO.N,GND*%
X178501000Y-150668500D02*
X177000000Y-149167500D01*
X181121735Y-150668500D02*
X178501000Y-150668500D01*
X209500000Y-113500000D02*
X209500000Y-122290235D01*
X209500000Y-122290235D02*
X181121735Y-150668500D01*
X184841000Y-111999000D02*
X207999000Y-111999000D01*
X207999000Y-111999000D02*
X209500000Y-113500000D01*
X184000000Y-112840000D02*
X184841000Y-111999000D01*
%TO.N,Net-(J1-Pin_1)*%
X184000000Y-102880000D02*
X184000000Y-110300000D01*
X164000000Y-82880000D02*
X184000000Y-102880000D01*
%TO.N,Net-(J3-Pin_38)*%
X135000000Y-143160000D02*
X174492500Y-143160000D01*
X174492500Y-143160000D02*
X180500000Y-149167500D01*
%TO.N,Net-(J1-Pin_1)*%
X177800000Y-116500000D02*
X184000000Y-110300000D01*
X134632240Y-116500000D02*
X177800000Y-116500000D01*
X133849000Y-118236760D02*
X133849000Y-117283240D01*
X132936760Y-119149000D02*
X133849000Y-118236760D01*
X131983240Y-119149000D02*
X132936760Y-119149000D01*
X131309000Y-119823240D02*
X131983240Y-119149000D01*
X131309000Y-142009000D02*
X131309000Y-119823240D01*
X133849000Y-117283240D02*
X134632240Y-116500000D01*
X132460000Y-143160000D02*
X131309000Y-142009000D01*
%TO.N,Net-(J2-Pin_8)*%
X179911000Y-123991000D02*
X184000000Y-128080000D01*
X133849000Y-123991000D02*
X179911000Y-123991000D01*
X132460000Y-125380000D02*
X133849000Y-123991000D01*
%TO.N,Net-(J2-Pin_6)*%
X182689000Y-121689000D02*
X184000000Y-123000000D01*
X133611000Y-121689000D02*
X182689000Y-121689000D01*
X132460000Y-122840000D02*
X133611000Y-121689000D01*
%TO.N,Net-(J2-Pin_5)*%
X133611000Y-119149000D02*
X182689000Y-119149000D01*
X182689000Y-119149000D02*
X184000000Y-120460000D01*
X132460000Y-120300000D02*
X133611000Y-119149000D01*
%TO.N,Net-(J1-Pin_3)*%
X140431000Y-111529000D02*
X164000000Y-87960000D01*
X134523240Y-111529000D02*
X140431000Y-111529000D01*
X133849000Y-112203240D02*
X134523240Y-111529000D01*
X133849000Y-113156760D02*
X133849000Y-112203240D01*
X132936760Y-114069000D02*
X133849000Y-113156760D01*
X131983240Y-114069000D02*
X132936760Y-114069000D01*
X131309000Y-114743240D02*
X131983240Y-114069000D01*
X131309000Y-116609000D02*
X131309000Y-114743240D01*
X132460000Y-117760000D02*
X131309000Y-116609000D01*
%TO.N,Net-(J1-Pin_4)*%
X140500000Y-114000000D02*
X164000000Y-90500000D01*
X133680000Y-114000000D02*
X140500000Y-114000000D01*
X132460000Y-115220000D02*
X133680000Y-114000000D01*
%TO.N,Net-(J3-Pin_12)*%
X140080000Y-107000000D02*
X156000000Y-91080000D01*
X138000000Y-107000000D02*
X140080000Y-107000000D01*
X138000000Y-107140000D02*
X138000000Y-107000000D01*
X135000000Y-110140000D02*
X138000000Y-107140000D01*
%TO.N,Net-(J3-Pin_8)*%
X139480000Y-105060000D02*
X156000000Y-88540000D01*
X135000000Y-105060000D02*
X139480000Y-105060000D01*
%TO.N,Net-(J3-Pin_6)*%
X139480000Y-102520000D02*
X156000000Y-86000000D01*
X135000000Y-102520000D02*
X139480000Y-102520000D01*
%TO.N,Net-(J3-Pin_4)*%
X135000000Y-99980000D02*
X139480000Y-99980000D01*
X139480000Y-99980000D02*
X156000000Y-83460000D01*
%TO.N,Net-(J3-Pin_2)*%
X139480000Y-97440000D02*
X156000000Y-80920000D01*
X135000000Y-97440000D02*
X139480000Y-97440000D01*
%TO.N,GND*%
X135000000Y-145700000D02*
X173532500Y-145700000D01*
X173532500Y-145700000D02*
X177000000Y-149167500D01*
X185151000Y-101729000D02*
X185151000Y-111689000D01*
X165151000Y-81729000D02*
X185151000Y-101729000D01*
X164000000Y-85420000D02*
X162849000Y-84269000D01*
X185151000Y-111689000D02*
X184000000Y-112840000D01*
X162849000Y-81729000D02*
X165151000Y-81729000D01*
X162849000Y-84269000D02*
X162849000Y-81729000D01*
%TD*%
M02*
