M48
; DRILL file {KiCad 9.0.4} date 2026-03-28T19:59:50-0700
; FORMAT={-:-/ absolute / metric / decimal}
; #@! TF.CreationDate,2026-03-28T19:59:50-07:00
; #@! TF.GenerationSoftware,Kicad,Pcbnew,9.0.4
; #@! TF.FileFunction,Plated,1,2,PTH
FMAT,2
METRIC
; #@! TA.AperFunction,Plated,PTH,ComponentDrill
T1C1.000
; #@! TA.AperFunction,Plated,PTH,ComponentDrill
T2C1.200
%
G90
G05
T1
X132.46Y-97.44
X132.46Y-99.98
X132.46Y-102.52
X132.46Y-105.06
X132.46Y-107.6
X132.46Y-110.14
X132.46Y-112.68
X132.46Y-115.22
X132.46Y-117.76
X132.46Y-120.3
X132.46Y-122.84
X132.46Y-125.38
X132.46Y-127.92
X132.46Y-130.46
X132.46Y-133.0
X132.46Y-135.54
X132.46Y-138.08
X132.46Y-140.62
X132.46Y-143.16
X132.46Y-145.7
X135.0Y-97.44
X135.0Y-99.98
X135.0Y-102.52
X135.0Y-105.06
X135.0Y-107.6
X135.0Y-110.14
X135.0Y-112.68
X135.0Y-115.22
X135.0Y-117.76
X135.0Y-120.3
X135.0Y-122.84
X135.0Y-125.38
X135.0Y-127.92
X135.0Y-130.46
X135.0Y-133.0
X135.0Y-135.54
X135.0Y-138.08
X135.0Y-140.62
X135.0Y-143.16
X135.0Y-145.7
X156.0Y-78.38
X156.0Y-80.92
X156.0Y-83.46
X156.0Y-86.0
X156.0Y-88.54
X156.0Y-91.08
X164.0Y-82.88
X164.0Y-85.42
X164.0Y-87.96
X164.0Y-90.5
X164.0Y-93.04
X164.0Y-95.58
X164.0Y-98.12
X164.0Y-100.66
X184.0Y-110.3
X184.0Y-112.84
X184.0Y-115.38
X184.0Y-117.92
X184.0Y-120.46
X184.0Y-123.0
X184.0Y-125.54
X184.0Y-128.08
T2
X173.5Y-149.167
X177.0Y-149.167
X180.5Y-149.167
X206.0Y-113.5
X209.5Y-113.5
M30
